<svg width="32" height="32" viewBox="0 0 32 32" fill="none" xmlns="http://www.w3.org/2000/svg">
<mask id="mask0_2_53" style="mask-type:luminance" maskUnits="userSpaceOnUse" x="0" y="3" width="32" height="26">
<path d="M28 5.33333H4C3.26362 5.33333 2.66667 5.93028 2.66667 6.66666V17.3333C2.66667 18.0697 3.26362 18.6667 4 18.6667H28C28.7364 18.6667 29.3333 18.0697 29.3333 17.3333V6.66666C29.3333 5.93028 28.7364 5.33333 28 5.33333Z" stroke="white" stroke-width="4" stroke-linecap="round" stroke-linejoin="round"/>
<path d="M8 13.3333H24V18.6667H8V13.3333Z" fill="white" stroke="white" stroke-width="4" stroke-linecap="round" stroke-linejoin="round"/>
<path d="M21.3333 9.33333H24M16 22.6667V26.6667M10.6667 24V25.3333M21.3333 24V25.3333" stroke="white" stroke-width="4" stroke-linecap="round" stroke-linejoin="round"/>
</mask>
<g mask="url(#mask0_2_53)">
<path d="M0 0H32V32H0V0Z" fill="#3F51B5"/>
</g>
</svg>
