<svg width="33" height="33" viewBox="0 0 33 33" fill="none" xmlns="http://www.w3.org/2000/svg">
<path d="M22.0227 3.65849L18.0484 7.65322L15.7538 5.38599L14.3231 6.83526L15.0779 7.5804L9.9871 12.7374C9.40869 13.3265 9.087 14.1206 9.09233 14.9462C9.09765 15.7718 9.42957 16.5617 10.0155 17.1433L11.8714 18.9753L4.44957 26.4604L5.89883 27.8911L13.2865 20.3732L15.1423 22.2033C15.7314 22.7817 16.5255 23.1034 17.3511 23.0981C18.1767 23.0927 18.9666 22.7608 19.5482 22.1748L24.64 17.0169L25.3949 17.762L26.8255 16.3127L24.5269 14.0485L28.469 10.023L27.0549 8.62611L23.0806 12.6218L19.4947 9.08092L23.4388 5.05537L22.0227 3.65849ZM16.4939 8.97429L23.225 15.619L18.1332 20.7789C17.7477 21.1684 16.9297 21.1737 16.5392 20.7892L11.4134 15.7282C11.0229 15.3427 11.0177 14.5248 11.4031 14.1343L16.494 8.97629L16.4939 8.97429Z" fill="#3F51B5"/>
</svg>
