<?xml version="1.0" encoding="utf-8"?>
<!-- Generator: Adobe Illustrator 27.0.0, SVG Export Plug-In . SVG Version: 6.00 Build 0)  -->
<svg version="1.0" id="Layer_1" xmlns="http://www.w3.org/2000/svg" xmlns:xlink="http://www.w3.org/1999/xlink" x="0px" y="0px"
	 viewBox="0 0 50 50" style="enable-background:new 0 0 50 50;" xml:space="preserve" fill='#578056'>
<!-- <style type="text/css">
	.st0{fill:#578056;}
</style> -->
<!-- <g> -->
	<path class="st0" d="M37.7,47.3c-0.6,0-1.1,0-1.7,0c-1.7,0-3-1.4-3.1-3.1c0-0.4,0-0.9,0-1.3c0-0.3-0.1-0.4-0.4-0.4
		c-5,0-10.1,0-15.1,0c-0.3,0-0.4,0.1-0.4,0.4c0,0.6,0.1,1.2-0.1,1.8c-0.3,1.4-1.5,2.5-3,2.5c-1.1,0-2.3,0-3.4,0
		c-1.7,0-3-1.4-3.1-3.1c0-0.2,0-0.5,0-0.7c0.1-0.8,0-1.5-0.8-2.1C6.2,41,6,40.3,6,39.7c-0.1-1.5-0.1-3.1,0-4.6
		c0.1-0.9,0.4-1.7,1-2.4c0.6-0.8,1.2-1.6,1.8-2.4C8.8,30.1,9,30,9,29.8c-0.1-0.2-0.3-0.1-0.5-0.1c-0.3,0-0.6,0-0.9,0
		c-0.9,0-1.6-0.7-1.6-1.6c0-0.9,0.7-1.6,1.6-1.6c1.1,0,2.2,0,3.2,0c0.4,0,0.6-0.1,0.8-0.5c0.5-1.1,1-2.1,1.6-3.2
		c0.9-1.8,2.4-2.8,4.5-2.8c5,0,9.9,0,14.9,0c2.1,0,3.5,0.9,4.5,2.7c0.5,1.1,1.1,2.2,1.6,3.2c0.1,0.3,0.3,0.4,0.6,0.4
		c1.1,0,2.2,0,3.2,0c1,0,1.7,0.7,1.7,1.6c0,0.9-0.7,1.6-1.7,1.6c-0.3,0-0.7,0-1,0c-0.1,0-0.3-0.1-0.3,0.1c0,0.1,0.1,0.2,0.1,0.3
		c0.6,0.8,1.2,1.6,1.8,2.4c0.7,1,1.1,2,1.1,3.2c0,1.1,0,2.2,0,3.3c0,1.1-0.4,2.1-1.3,2.7c-0.2,0.1-0.3,0.3-0.3,0.5
		c0,0.6,0,1.2,0,1.7c0,1.7-1.4,3.1-3.1,3.1C38.8,47.3,38.3,47.3,37.7,47.3z M25,29.8c3.3,0,6.6,0,9.9,0c0.5,0,0.9-0.1,1.3-0.4
		c0.2-0.1,0.3-0.3,0.1-0.5c-0.8-1.5-1.5-3-2.2-4.4c-0.4-0.7-0.9-1.1-1.7-1.1c-4.9,0-9.8,0-14.7,0c-0.8,0-1.4,0.3-1.7,1.1
		c-0.7,1.4-1.3,2.7-2,4c-0.4,0.8-0.3,1,0.6,1.2c0.2,0.1,0.5,0.1,0.7,0.1C18.4,29.8,21.7,29.8,25,29.8z M14.7,36.9
		c0-1.3-1-2.4-2.3-2.4c-1.3,0-2.4,1-2.4,2.4c0,1.3,1.1,2.4,2.4,2.4C13.6,39.3,14.7,38.2,14.7,36.9z M40.1,36.9
		c0-1.3-1.1-2.4-2.4-2.4c-1.3,0-2.4,1.1-2.4,2.4c0,1.3,1.1,2.4,2.4,2.4C39,39.3,40.1,38.2,40.1,36.9z"/>
	<path class="st0" d="M30.1,15.4c-2.6,0-5.2,0-7.8,0c-0.3,0-0.5,0.1-0.8,0.4c-3.5,4.2-10.1,3.6-12.8-1c-0.1-0.1-0.2-0.3-0.2-0.4
		c-0.4-0.7,0-1.3,0.8-1.3c1.1,0,2.2,0,3.3,0c0.8,0,1.3-0.3,1.7-1c0.9-1.4,0.7-1.8-0.3-3.2c-0.3-0.4-0.8-0.6-1.3-0.6
		c-1.1,0-2.3,0-3.4,0C8.4,8.3,8,7.7,8.5,6.9c2.5-4.9,9.4-5.6,13-1.4c0.3,0.3,0.5,0.4,0.9,0.4c5.1,0,10.2,0,15.3,0
		c2.3,0,4.4,1.6,4.8,3.8c0.6,2.9-1.6,5.7-4.6,5.7C35.2,15.5,32.6,15.4,30.1,15.4C30.1,15.4,30.1,15.4,30.1,15.4z" />
<!-- </g> -->
</svg>
