<svg width="43" height="45" viewBox="0 0 43 45" fill="none" xmlns="http://www.w3.org/2000/svg">
<path d="M13.5298 3.75H36.3869C37.5993 3.75 38.7621 4.08714 39.6194 4.68726C40.4767 5.28737 40.9583 6.10131 40.9583 6.95V14.95H8.95833V6.95C8.95833 6.10131 9.43996 5.28737 10.2973 4.68726C11.1546 4.08714 12.3173 3.75 13.5298 3.75ZM40.9583 30.95C40.9583 31.7987 40.4767 32.6126 39.6194 33.2127C38.7621 33.8129 37.5993 34.15 36.3869 34.15V35.75H31.8155V34.15H18.1012V35.75H13.5298V34.15C12.3173 34.15 11.1546 33.8129 10.2973 33.2127C9.43996 32.6126 8.95833 31.7987 8.95833 30.95V16.55H40.9583V30.95ZM15.8155 8.55V11.75H20.3869V8.55H15.8155ZM15.8155 19.75V24.55H20.3869V19.75H15.8155Z" fill="#3F51B5"/>
</svg>
