<svg width="32" height="32" viewBox="0 0 32 32" fill="none" xmlns="http://www.w3.org/2000/svg">
<path d="M25.3333 2.66667H6.66667C5.93029 2.66667 5.33334 3.26363 5.33334 4.00001V28C5.33334 28.7364 5.93029 29.3333 6.66667 29.3333H25.3333C26.0697 29.3333 26.6667 28.7364 26.6667 28V4.00001C26.6667 3.26363 26.0697 2.66667 25.3333 2.66667Z" stroke="#3F51B5" stroke-width="4"/>
<path d="M5.33334 8C5.33334 8.35363 5.47381 8.69277 5.72386 8.94281C5.97391 9.19286 6.31305 9.33334 6.66667 9.33334H25.3333C25.687 9.33334 26.0261 9.19286 26.2761 8.94281C26.5262 8.69277 26.6667 8.35363 26.6667 8V4.00001C26.6667 3.64638 26.5262 3.30724 26.2761 3.0572C26.0261 2.80715 25.687 2.66667 25.3333 2.66667H6.66667C6.31305 2.66667 5.97391 2.80715 5.72386 3.0572C5.47381 3.30724 5.33334 3.64638 5.33334 4.00001V8Z" stroke="#3F51B5" stroke-width="4"/>
<path d="M9.33333 7.33334C10.0697 7.33334 10.6667 6.73638 10.6667 6.00001C10.6667 5.26363 10.0697 4.66667 9.33333 4.66667C8.59695 4.66667 8 5.26363 8 6.00001C8 6.73638 8.59695 7.33334 9.33333 7.33334Z" fill="#3F51B5"/>
<path d="M13.3333 7.33334C14.0697 7.33334 14.6667 6.73638 14.6667 6.00001C14.6667 5.26363 14.0697 4.66667 13.3333 4.66667C12.597 4.66667 12 5.26363 12 6.00001C12 6.73638 12.597 7.33334 13.3333 7.33334Z" fill="#3F51B5"/>
<path d="M16 24C18.5773 24 20.6667 21.9107 20.6667 19.3333C20.6667 16.756 18.5773 14.6667 16 14.6667C13.4227 14.6667 11.3333 16.756 11.3333 19.3333C11.3333 21.9107 13.4227 24 16 24Z" stroke="#3F51B5" stroke-width="4"/>
</svg>
